<svg xmlns="http://www.w3.org/2000/svg" viewBox="0 0 147.4 18.43"><defs><style>.cls-1{fill:#fff;}</style></defs><title>SPRINTEINS-52x6,5_wht</title><g id="Ebene_2" data-name="Ebene 2"><g id="Ebene_1-2" data-name="Ebene 1"><g id="Logo"><path class="cls-1" d="M40.86,10.4v-.05a4.89,4.89,0,0,0,3.21-4.82,4.88,4.88,0,0,0-3-4.82A9,9,0,0,0,37.73.3H32.28V18.12h2.5V11h3.81l3.76,7.09h2.83l-3.79-6.92A5,5,0,0,0,40.86,10.4Zm-2.5-1.54H34.78V2.47h2.88a4.92,4.92,0,0,1,2.45.4,2.92,2.92,0,0,1,1.41,2.75A3,3,0,0,1,38.36,8.86Z"/><rect class="cls-1" x="49.73" y="0.3" width="2.5" height="17.82"/><path class="cls-1" d="M2.93,4.92c0-1.41,1.34-2.6,3.23-2.6a6.29,6.29,0,0,1,3.91,1.54l1.14-2.07A7.31,7.31,0,0,0,6.16,0C2.8,0,.4,2.19.4,5,.4,10.45,9,9.62,9,13.48,9,15.17,7.62,16.1,6,16.1a7,7,0,0,1-4.54-1.92L0,16.08a8.34,8.34,0,0,0,5.91,2.35c3.53,0,5.65-2.27,5.65-5C11.56,7.62,2.93,8.61,2.93,4.92Z"/><path class="cls-1" d="M138.77,4.92c0-1.41,1.34-2.6,3.23-2.6a6.28,6.28,0,0,1,3.91,1.54L147,1.79A7.3,7.3,0,0,0,142,0c-3.36,0-5.76,2.19-5.76,5,0,5.48,8.63,4.64,8.63,8.51,0,1.69-1.41,2.63-3.08,2.63a7,7,0,0,1-4.54-1.92l-1.41,1.89a8.33,8.33,0,0,0,5.9,2.35c3.54,0,5.66-2.27,5.66-5C147.4,7.62,138.77,8.61,138.77,4.92Z"/><path class="cls-1" d="M22.5.3H16V18.12h2.5V11.53h4a5.38,5.38,0,0,0,5.6-5.66A5.32,5.32,0,0,0,22.5.3Zm-.4,9.06H18.49V2.47h3.63a3.15,3.15,0,0,1,3.43,3.41A3.22,3.22,0,0,1,22.09,9.36Z"/><polygon class="cls-1" points="95.73 10.22 102.12 10.22 102.12 8.05 95.73 8.05 95.73 2.47 103.58 2.47 103.58 0.3 93.23 0.3 93.23 18.12 104.01 18.12 104.01 15.95 95.73 15.95 95.73 10.22"/><rect class="cls-1" x="108.9" y="0.3" width="2.5" height="17.82"/><polygon class="cls-1" points="75.82 2.47 81.49 2.47 81.49 18.12 83.99 18.12 83.99 2.47 89.67 2.47 89.67 0.3 75.82 0.3 75.82 2.47"/><polygon class="cls-1" points="64.83 12.17 64.84 12.17 64.83 12.17 64.83 12.17"/><polygon class="cls-1" points="69.75 13.84 67.41 10.46 65.7 10.46 65.7 12.17 69.8 18.12 72.25 18.12 72.25 0.3 69.75 0.3 69.75 13.84"/><polygon class="cls-1" points="60.44 0.3 57.99 0.3 57.99 18.12 60.49 18.12 60.49 4.59 62.83 7.96 64.53 7.96 64.53 6.26 60.44 0.3"/><polygon class="cls-1" points="128.92 13.84 126.58 10.46 124.87 10.46 124.87 12.17 124.87 12.17 124.87 12.17 128.97 18.12 131.41 18.12 131.41 0.3 128.92 0.3 128.92 13.84"/><polygon class="cls-1" points="119.6 0.3 117.15 0.3 117.15 18.12 119.65 18.12 119.65 4.59 121.99 7.96 123.7 7.96 123.7 6.26 119.6 0.3"/></g></g></g></svg>