<svg xmlns="http://www.w3.org/2000/svg" viewBox="0 0 90.71 11.34"><defs><style>.cls-1{fill:#fff;}</style></defs><title>SPRINTEINS-32x4_wht</title><g id="Ebene_2" data-name="Ebene 2"><g id="Ebene_1-2" data-name="Ebene 1"><g id="Logo"><path class="cls-1" d="M25.15,6.4v0a3,3,0,0,0,2-3,3,3,0,0,0-1.85-3A5.57,5.57,0,0,0,23.22.19H19.86v11H21.4V6.79h2.34l2.31,4.36H27.8L25.47,6.9A3.09,3.09,0,0,0,25.15,6.4Zm-1.54-.95H21.4V1.52h1.77a3,3,0,0,1,1.51.25,1.8,1.8,0,0,1,.87,1.69A1.82,1.82,0,0,1,23.61,5.45Z"/><rect class="cls-1" x="30.6" y="0.19" width="1.54" height="10.97"/><path class="cls-1" d="M1.8,3a1.79,1.79,0,0,1,2-1.6,3.87,3.87,0,0,1,2.41.95L6.9,1.1A4.5,4.5,0,0,0,3.79,0,3.25,3.25,0,0,0,.25,3.06c0,3.37,5.31,2.86,5.31,5.23a1.69,1.69,0,0,1-1.9,1.62A4.33,4.33,0,0,1,.87,8.73L0,9.89a5.13,5.13,0,0,0,3.63,1.44A3.16,3.16,0,0,0,7.11,8.25C7.11,4.69,1.8,5.3,1.8,3Z"/><path class="cls-1" d="M85.4,3a1.79,1.79,0,0,1,2-1.6,3.86,3.86,0,0,1,2.41.95l.7-1.27A4.49,4.49,0,0,0,87.38,0a3.25,3.25,0,0,0-3.54,3.06c0,3.37,5.31,2.86,5.31,5.23a1.69,1.69,0,0,1-1.89,1.62,4.33,4.33,0,0,1-2.8-1.18L83.6,9.89a5.13,5.13,0,0,0,3.63,1.44,3.16,3.16,0,0,0,3.48-3.09C90.71,4.69,85.4,5.3,85.4,3Z"/><path class="cls-1" d="M13.85.19h-4v11h1.54V7.1h2.47a3.31,3.31,0,0,0,3.45-3.48A3.27,3.27,0,0,0,13.85.19ZM13.6,5.76H11.38V1.52h2.24a1.94,1.94,0,0,1,2.11,2.1A2,2,0,0,1,13.6,5.76Z"/><polygon class="cls-1" points="58.91 6.29 62.84 6.29 62.84 4.95 58.91 4.95 58.91 1.52 63.74 1.52 63.74 0.19 57.38 0.19 57.38 11.15 64.01 11.15 64.01 9.82 58.91 9.82 58.91 6.29"/><rect class="cls-1" x="67.02" y="0.19" width="1.54" height="10.97"/><polygon class="cls-1" points="46.66 1.52 50.15 1.52 50.15 11.15 51.69 11.15 51.69 1.52 55.18 1.52 55.18 0.19 46.66 0.19 46.66 1.52"/><polygon class="cls-1" points="39.9 7.49 39.9 7.49 39.9 7.49 39.9 7.49"/><polygon class="cls-1" points="42.92 8.52 41.48 6.44 40.43 6.44 40.43 7.49 42.95 11.15 44.46 11.15 44.46 0.19 42.92 0.19 42.92 8.52"/><polygon class="cls-1" points="37.19 0.19 35.68 0.19 35.68 11.15 37.22 11.15 37.22 2.82 38.66 4.9 39.71 4.9 39.71 3.85 37.19 0.19"/><polygon class="cls-1" points="79.33 8.52 77.89 6.44 76.84 6.44 76.84 7.49 76.84 7.49 76.84 7.49 79.36 11.15 80.87 11.15 80.87 0.19 79.33 0.19 79.33 8.52"/><polygon class="cls-1" points="73.6 0.19 72.09 0.19 72.09 11.15 73.63 11.15 73.63 2.82 75.07 4.9 76.12 4.9 76.12 3.85 73.6 0.19"/></g></g></g></svg>