<svg
	width="109"
	height="111"
	viewBox="0 0 109 111"
	fill="none"
	xmlns="http://www.w3.org/2000/svg"
>
	<path
		d="M108.729 94.6953L91.9711 77.9373C97.2772 69.9783 100.37 60.4328 100.37 50.1807C100.383 22.5173 77.8661 0 50.1895 0C22.5128 0 0.00878906 22.5173 0.00878906 50.1807C0.00878906 77.844 22.5261 100.361 50.1895 100.361C59.455 100.361 68.1473 97.8283 75.5997 93.4288L92.7977 110.627L108.729 94.6953ZM5.34148 50.1807C5.34148 25.4503 25.4591 5.3327 50.1895 5.3327C74.9198 5.3327 95.0374 25.4503 95.0374 50.1807C95.0374 74.911 74.9198 95.0286 50.1895 95.0286C25.4591 95.0286 5.34148 74.911 5.34148 50.1807Z"
		fill="#262D24"
	/>
	<path
		d="M58.8282 22.6506H41.5503V41.5417H22.6592V58.8196H41.5503V77.7107H58.8282V58.8196H77.7193V41.5417H58.8282V22.6506Z"
		fill="#262D24"
	/>
</svg>