<svg width="29" height="39" viewBox="0 0 29 39" fill="none" xmlns="http://www.w3.org/2000/svg">
    <g clip-path="url(#clip0_171_10)">
        <path
            d="M10.3423 -2.38419e-07L9.54255 0.799764L0.811788 9.53053L0.0120239 10.3303V38.0821H14.2612V35.7628H2.33134V11.8498H11.8619V2.31932H26.4442V25.6058L27.084 24.966L28.7636 23.2865V-2.38419e-07H10.3423ZM9.52922 9.53053H4.10415L9.54255 4.0788V9.5172L9.52922 9.53053Z"
            fill="#242D23" />
        <path
            d="M28.7102 29.7779V26.6055L26.4309 28.8848L24.0183 31.2974V24.0329H21.339V31.2974L16.6204 26.5655V29.7512L22.6053 35.7228H16.5804V35.7761V38.0821V38.1354H28.7235V38.0821V35.7228H22.7653L28.7102 29.7779Z"
            fill="#242D23" />
    </g>
    <defs>
        <clipPath id="clip0_171_10">
            <rect width="28.7622" height="38.1354" fill="white" />
        </clipPath>
    </defs>
</svg>