<svg width="28" height="28" viewBox="0 0 28 28" fill="none" xmlns="http://www.w3.org/2000/svg">
    <path
        d="M27.515 13.7575C27.515 6.15887 21.3561 0 13.7575 0C6.15887 0 0 6.15887 0 13.7575C0 15.8371 0.466581 17.7967 1.2931 19.5564H1.94631C1.0798 17.8101 0.586559 15.8371 0.586559 13.7575C0.586559 6.47881 6.47881 0.586559 13.7575 0.586559C21.0361 0.586559 26.9284 6.47881 26.9284 13.7575C26.9284 21.0361 21.0361 26.9284 13.7575 26.9284C11.9445 26.9284 10.2248 26.5685 8.66508 25.9019V26.5285C10.2381 27.155 11.9578 27.515 13.7575 27.515C21.3561 27.515 27.515 21.3561 27.515 13.7575Z"
        fill="#242D23" />

</svg>