<svg xmlns="http://www.w3.org/2000/svg" viewBox="0 0 113.39 38.17"><defs><style>.cls-1,.cls-2{fill:#fff;}.cls-2{font-size:4.5px;font-family:Replica-Bold, Replica;font-weight:700;letter-spacing:0.13em;}.cls-3{letter-spacing:0.12em;}.cls-4{letter-spacing:0.12em;}.cls-5{letter-spacing:0.11em;}.cls-6{letter-spacing:0.11em;}.cls-7{letter-spacing:0.12em;}.cls-8{letter-spacing:0.12em;}.cls-9{letter-spacing:0.1em;}.cls-10{letter-spacing:0.13em;}.cls-11{letter-spacing:0.12em;}.cls-12{letter-spacing:0.13em;}.cls-13{letter-spacing:0.12em;}.cls-14{letter-spacing:0.06em;}.cls-15{letter-spacing:0.12em;}.cls-16{letter-spacing:0.1em;}.cls-17{fill:none;}</style></defs><title>SPRINTEINS-32x4_wht_mit_Claim</title><g id="Ebene_2" data-name="Ebene 2"><g id="Ebene_1-2" data-name="Ebene 1"><g id="Logo"><path class="cls-1" d="M36.48,17.74v0a3,3,0,0,0,2-3,3,3,0,0,0-1.85-3,5.57,5.57,0,0,0-2.05-.25H31.2v11h1.54V18.13h2.34l2.31,4.36h1.74l-2.33-4.26A3.09,3.09,0,0,0,36.48,17.74Zm-1.54-.95h-2.2V12.86h1.77a3,3,0,0,1,1.51.25,1.8,1.8,0,0,1,.87,1.69A1.82,1.82,0,0,1,34.95,16.79Z"/><rect class="cls-1" x="41.94" y="11.53" width="1.54" height="10.97"/><path class="cls-1" d="M13.14,14.37a1.79,1.79,0,0,1,2-1.6,3.87,3.87,0,0,1,2.41.95l.7-1.27a4.5,4.5,0,0,0-3.11-1.1,3.25,3.25,0,0,0-3.54,3.06c0,3.37,5.31,2.86,5.31,5.23A1.69,1.69,0,0,1,15,21.25a4.33,4.33,0,0,1-2.8-1.18l-.87,1.16A5.13,5.13,0,0,0,15,22.68a3.16,3.16,0,0,0,3.48-3.09C18.45,16,13.14,16.64,13.14,14.37Z"/><path class="cls-1" d="M96.74,14.37a1.79,1.79,0,0,1,2-1.6,3.86,3.86,0,0,1,2.41.95l.7-1.27a4.49,4.49,0,0,0-3.11-1.1,3.25,3.25,0,0,0-3.54,3.06c0,3.37,5.31,2.86,5.31,5.23a1.69,1.69,0,0,1-1.89,1.62,4.33,4.33,0,0,1-2.8-1.18l-.87,1.16a5.13,5.13,0,0,0,3.63,1.44A3.16,3.16,0,0,0,102,19.59C102,16,96.74,16.64,96.74,14.37Z"/><path class="cls-1" d="M25.18,11.53h-4v11h1.54V18.44h2.47A3.31,3.31,0,0,0,28.63,15,3.27,3.27,0,0,0,25.18,11.53Zm-.25,5.58H22.71V12.86H25A1.94,1.94,0,0,1,27.06,15,2,2,0,0,1,24.94,17.1Z"/><polygon class="cls-1" points="70.25 17.63 74.18 17.63 74.18 16.29 70.25 16.29 70.25 12.86 75.08 12.86 75.08 11.53 68.71 11.53 68.71 22.49 75.35 22.49 75.35 21.16 70.25 21.16 70.25 17.63"/><rect class="cls-1" x="78.35" y="11.53" width="1.54" height="10.97"/><polygon class="cls-1" points="57.99 12.86 61.49 12.86 61.49 22.49 63.02 22.49 63.02 12.86 66.52 12.86 66.52 11.53 57.99 11.53 57.99 12.86"/><polygon class="cls-1" points="51.24 18.83 51.24 18.83 51.24 18.82 51.24 18.83"/><polygon class="cls-1" points="54.26 19.86 52.82 17.78 51.77 17.78 51.77 18.83 54.29 22.49 55.8 22.49 55.8 11.53 54.26 11.53 54.26 19.86"/><polygon class="cls-1" points="48.53 11.53 47.02 11.53 47.02 22.49 48.56 22.49 48.56 14.16 50 16.24 51.05 16.24 51.05 15.19 48.53 11.53"/><polygon class="cls-1" points="90.67 19.86 89.23 17.78 88.18 17.78 88.18 18.82 88.18 18.83 88.18 18.83 90.7 22.49 92.21 22.49 92.21 11.53 90.67 11.53 90.67 19.86"/><polygon class="cls-1" points="84.94 11.53 83.43 11.53 83.43 22.49 84.97 22.49 84.97 14.16 86.41 16.24 87.46 16.24 87.46 15.19 84.94 11.53"/></g><text class="cls-2" transform="translate(31.26 37.22)">RE<tspan class="cls-3" x="7.11" y="0">A</tspan><tspan class="cls-4" x="10.57" y="0">L</tspan><tspan class="cls-5" x="13.64" y="0">I</tspan><tspan class="cls-6" x="15.49" y="0">Z</tspan><tspan class="cls-7" x="18.79" y="0">I</tspan><tspan class="cls-8" x="20.69" y="0">N</tspan><tspan class="cls-9" x="24.62" y="0">G </tspan><tspan class="cls-10" x="30.02" y="0">D</tspan><tspan class="cls-11" x="33.7" y="0">I</tspan><tspan class="cls-12" x="35.6" y="0">G</tspan><tspan class="cls-13" x="39.5" y="0">I</tspan><tspan class="cls-14" x="41.37" y="0">T</tspan><tspan class="cls-15" x="44.43" y="0">A</tspan><tspan class="cls-16" x="47.89" y="0">L</tspan></text><rect id="Schutzraum" class="cls-17" width="113.39" height="34.02"/></g></g></svg>