<svg
	width="94"
	height="84"
	viewBox="0 0 94 84"
	fill="none"
	xmlns="http://www.w3.org/2000/svg"
>
	<path
		d="M9.38672 39.3252V83.986H14.0454V39.3252C13.2767 39.4298 12.508 39.5112 11.716 39.5112C10.9241 39.5112 10.1554 39.4298 9.38672 39.3252Z"
		fill="#262D24"
	/>
	<path
		d="M14.0454 7.0095V0H9.38672V7.0095C10.1554 6.90488 10.9241 6.82351 11.716 6.82351C12.508 6.82351 13.2767 6.90488 14.0454 7.0095Z"
		fill="#262D24"
	/>
	<path
		d="M84.6128 29.1656V0H79.9541V29.1656C80.7228 29.0609 81.4915 28.9796 82.2834 28.9796C83.0754 28.9796 83.8441 29.0609 84.6128 29.1656Z"
		fill="#262D24"
	/>
	<path
		d="M79.9541 61.4929V83.9861H84.6128V61.4929C83.8441 61.5975 83.0754 61.6789 82.2834 61.6789C81.4915 61.6789 80.7228 61.5975 79.9541 61.4929Z"
		fill="#262D24"
	/>
	<path
		d="M44.665 77.4648V83.9861H49.3237V77.4648C48.555 77.5695 47.7863 77.6508 46.9944 77.6508C46.2024 77.6508 45.4337 77.5695 44.665 77.4648Z"
		fill="#262D24"
	/>
	<path
		d="M49.3237 45.1491V0H44.665V45.1491C45.4337 45.0444 46.2024 44.9631 46.9944 44.9631C47.7863 44.9631 48.555 45.0444 49.3237 45.1491Z"
		fill="#262D24"
	/>
	<path
		d="M14.0458 11.7058C13.2888 11.5546 12.5085 11.4733 11.7165 11.4733C10.9245 11.4733 10.1442 11.5546 9.38719 11.7058C4.04138 12.7868 0 17.5179 0 23.1674C0 28.8168 4.04138 33.548 9.38719 34.629C10.1442 34.7801 10.9245 34.8615 11.7165 34.8615C12.5085 34.8615 13.2888 34.7801 14.0458 34.629C19.3917 33.548 23.433 28.8168 23.433 23.1674C23.433 17.5179 19.3917 12.7868 14.0458 11.7058Z"
		fill="#262D24"
	/>
	<path
		d="M49.3232 49.8453C48.5662 49.6942 47.7858 49.6128 46.9939 49.6128C46.2019 49.6128 45.4216 49.6942 44.6645 49.8453C39.3187 50.9263 35.2773 55.6575 35.2773 61.3069C35.2773 66.9564 39.3187 71.6875 44.6645 72.7685C45.4216 72.9197 46.2019 73.001 46.9939 73.001C47.7858 73.001 48.5662 72.9197 49.3232 72.7685C54.669 71.6875 58.7104 66.9564 58.7104 61.3069C58.7104 55.6575 54.669 50.9263 49.3232 49.8453Z"
		fill="#262D24"
	/>
	<path
		d="M84.6132 33.8735C83.8562 33.7224 83.0759 33.641 82.2839 33.641C81.4919 33.641 80.7116 33.7224 79.9546 33.8735C74.6088 34.9545 70.5674 39.6857 70.5674 45.3351C70.5674 50.9846 74.6088 55.7157 79.9546 56.7967C80.7116 56.9479 81.4919 57.0292 82.2839 57.0292C83.0759 57.0292 83.8562 56.9479 84.6132 56.7967C89.959 55.7157 94.0004 50.9846 94.0004 45.3351C94.0004 39.6857 89.959 34.9545 84.6132 33.8735Z"
		fill="#262D24"
	/>
</svg>