<svg
	width="105"
	height="73"
	viewBox="0 0 105 73"
	fill="none"
	xmlns="http://www.w3.org/2000/svg"
>
	<path
		d="M0.0205078 0V72.9449H104.106V0H0.0205078ZM98.7734 67.6127H5.35274V5.33223H98.7734V67.6127Z"
		fill="#262D24"
	/>
	<path d="M50.1169 58.2812H40.7988V63.6401H50.1169V58.2812Z" fill="#262D24" />
	<path d="M63.3269 58.2812H54.0088V63.6401H63.3269V58.2812Z" fill="#262D24" />
	<path d="M16.8433 11.4777H11.4844V20.7957H16.8433V11.4777Z" fill="#262D24" />
	<path d="M27.5083 11.4777H22.1494V20.7957H27.5083V11.4777Z" fill="#262D24" />
	<path d="M38.1987 11.4777H32.8398V20.7957H38.1987V11.4777Z" fill="#262D24" />
	<path d="M71.2856 11.4777H65.9268V20.7957H71.2856V11.4777Z" fill="#262D24" />
	<path d="M81.9634 11.4777H76.6045V20.7957H81.9634V11.4777Z" fill="#262D24" />
	<path d="M92.6548 11.4777H87.2959V20.7957H92.6548V11.4777Z" fill="#262D24" />
	<path
		d="M16.8438 52.5358H87.2825V27.381H16.8438V52.5358ZM79.0042 37.4856C80.3639 37.4856 81.4704 38.592 81.4704 39.9517C81.4704 41.3114 80.3639 42.4179 79.0042 42.4179C77.6445 42.4179 76.538 41.3114 76.538 39.9517C76.538 38.592 77.6445 37.4856 79.0042 37.4856ZM69.0063 30.7403H71.6724V49.1631H69.0063V30.7403ZM61.1946 37.4856C62.5543 37.4856 63.6607 38.592 63.6607 39.9517C63.6607 41.3114 62.5543 42.4179 61.1946 42.4179C59.8348 42.4179 58.7284 41.3114 58.7284 39.9517C58.7284 38.592 59.8348 37.4856 61.1946 37.4856ZM50.7167 30.7403H53.3828V49.1631H50.7167V30.7403ZM42.905 37.4856C44.2647 37.4856 45.3712 38.592 45.3712 39.9517C45.3712 41.3114 44.2647 42.4179 42.905 42.4179C41.5453 42.4179 40.4389 41.3114 40.4389 39.9517C40.4389 38.592 41.5453 37.4856 42.905 37.4856ZM32.4272 30.7403H35.0933V49.1631H32.4272V30.7403ZM25.1087 37.4856C26.4684 37.4856 27.5749 38.592 27.5749 39.9517C27.5749 41.3114 26.4684 42.4179 25.1087 42.4179C23.749 42.4179 22.6425 41.3114 22.6425 39.9517C22.6425 38.592 23.749 37.4856 25.1087 37.4856Z"
		fill="#262D24"
	/>
</svg>