<svg
	width="121"
	height="88"
	viewBox="0 0 121 88"
	fill="none"
	xmlns="http://www.w3.org/2000/svg"
>
	<path
		d="M109.261 67.0457C111.687 63.0459 113.114 58.3795 113.114 53.3665C113.114 45.4736 109.607 38.394 104.101 33.5409V0.00939941H0V72.9654H69.0095C73.7026 77.1918 79.8889 79.805 86.6752 79.805C91.1816 79.805 95.4348 78.6584 99.1545 76.6585L110.247 87.7512L120.1 77.8984L109.247 67.0457H109.261ZM65.5964 53.3665C65.5964 41.7404 75.0625 32.2743 86.6886 32.2743C91.1816 32.2743 95.3414 33.7009 98.7679 36.1007C100.848 37.5673 102.661 39.3806 104.101 41.4871C106.421 44.8736 107.781 48.9667 107.781 53.3665C107.781 57.7662 106.421 61.8593 104.101 65.2458C101.741 68.699 98.3812 71.3921 94.4481 72.9654C92.0349 73.9253 89.4217 74.472 86.6886 74.472C83.9554 74.472 81.3289 73.9253 78.929 72.9654C75.9558 71.7788 73.3293 69.9522 71.1961 67.6323C67.7296 63.8726 65.5964 58.8728 65.5964 53.3665ZM5.33304 5.34244H98.7679V16.9418H5.33304V5.34244ZM5.33304 67.6323V22.2748H98.7679V29.8878C95.1414 28.0079 91.035 26.9413 86.6886 26.9413C72.116 26.9413 60.2634 38.7939 60.2634 53.3665C60.2634 58.6195 61.8233 63.5126 64.4764 67.6323H5.33304Z"
		fill="#262D24"
	/>
	<path d="M95.3152 8.71558H87.5156V14.0753H95.3152V8.71558Z" fill="#262D24" />
	<path
		d="M102.848 53.3664C102.848 44.4469 95.6079 37.2073 86.6884 37.2073C77.7689 37.2073 70.5293 44.4469 70.5293 53.3664C70.5293 62.286 77.7689 69.5256 86.6884 69.5256C95.6079 69.5256 102.848 62.286 102.848 53.3664Z"
		fill="#262D24"
	/>
</svg>