<svg xmlns="http://www.w3.org/2000/svg" viewBox="0 0 184.25 61.67"><defs><style>.cls-1{fill:#001822;}.cls-2{font-size:6px;fill:#231f20;font-family:Replica-Bold, Replica;font-weight:700;letter-spacing:0.1em;}.cls-3{letter-spacing:0.09em;}.cls-4{letter-spacing:0.1em;}.cls-5{letter-spacing:0.09em;}.cls-6{letter-spacing:0.09em;}.cls-7{letter-spacing:0.1em;}.cls-8{letter-spacing:0.1em;}.cls-9{letter-spacing:0.08em;}.cls-10{letter-spacing:0.1em;}.cls-11{letter-spacing:0.1em;}.cls-12{letter-spacing:0.1em;}.cls-13{letter-spacing:0.09em;}.cls-14{letter-spacing:0.03em;}.cls-15{letter-spacing:0.09em;}.cls-16{letter-spacing:0.07em;}.cls-17{fill:none;}</style></defs><title>SPRINTEINS-52x6,5_1c_mit_Claim</title><g id="Ebene_2" data-name="Ebene 2"><g id="Ebene_1-2" data-name="Ebene 1"><g id="Logo"><path class="cls-1" d="M59.29,28.82v-.05A4.89,4.89,0,0,0,62.49,24a4.88,4.88,0,0,0-3-4.82,9,9,0,0,0-3.33-.4H50.7V36.55h2.5V29.45H57l3.76,7.09H63.6l-3.79-6.92A5,5,0,0,0,59.29,28.82Zm-2.5-1.54H53.2V20.9h2.88a4.92,4.92,0,0,1,2.45.4,2.92,2.92,0,0,1,1.41,2.75A3,3,0,0,1,56.79,27.28Z"/><rect class="cls-1" x="68.16" y="18.73" width="2.5" height="17.82"/><path class="cls-1" d="M21.36,23.35c0-1.41,1.34-2.6,3.23-2.6a6.29,6.29,0,0,1,3.91,1.54l1.14-2.07a7.31,7.31,0,0,0-5-1.79c-3.36,0-5.75,2.19-5.75,5,0,5.48,8.63,4.64,8.63,8.51,0,1.69-1.41,2.63-3.08,2.63a7,7,0,0,1-4.54-1.92L18.43,34.5a8.34,8.34,0,0,0,5.91,2.35c3.53,0,5.65-2.27,5.65-5C30,26,21.36,27,21.36,23.35Z"/><path class="cls-1" d="M157.2,23.35c0-1.41,1.34-2.6,3.23-2.6a6.28,6.28,0,0,1,3.91,1.54l1.14-2.07a7.3,7.3,0,0,0-5-1.79c-3.36,0-5.76,2.19-5.76,5,0,5.48,8.63,4.64,8.63,8.51,0,1.69-1.41,2.63-3.08,2.63a7,7,0,0,1-4.54-1.92l-1.41,1.89a8.33,8.33,0,0,0,5.9,2.35c3.54,0,5.66-2.27,5.66-5C165.83,26,157.2,27,157.2,23.35Z"/><path class="cls-1" d="M40.92,18.73H34.41V36.55h2.5V30h4a5.38,5.38,0,0,0,5.6-5.66A5.32,5.32,0,0,0,40.92,18.73Zm-.4,9.06H36.91V20.9h3.63A3.15,3.15,0,0,1,44,24.3,3.22,3.22,0,0,1,40.52,27.79Z"/><polygon class="cls-1" points="114.16 28.65 120.54 28.65 120.54 26.48 114.16 26.48 114.16 20.9 122.01 20.9 122.01 18.73 111.66 18.73 111.66 36.55 122.44 36.55 122.44 34.38 114.16 34.38 114.16 28.65"/><rect class="cls-1" x="127.33" y="18.73" width="2.5" height="17.82"/><polygon class="cls-1" points="94.24 20.9 99.92 20.9 99.92 36.55 102.42 36.55 102.42 20.9 108.09 20.9 108.09 18.73 94.24 18.73 94.24 20.9"/><polygon class="cls-1" points="83.26 30.59 83.26 30.59 83.26 30.59 83.26 30.59"/><polygon class="cls-1" points="88.17 32.27 85.83 28.89 84.13 28.89 84.13 30.59 88.22 36.55 90.67 36.55 90.67 18.73 88.17 18.73 88.17 32.27"/><polygon class="cls-1" points="78.86 18.73 76.41 18.73 76.41 36.55 78.91 36.55 78.91 23.01 81.25 26.39 82.96 26.39 82.96 24.68 78.86 18.73"/><polygon class="cls-1" points="147.34 32.27 145 28.89 143.29 28.89 143.29 30.59 143.3 30.59 143.29 30.59 147.39 36.55 149.84 36.55 149.84 18.73 147.34 18.73 147.34 32.27"/><polygon class="cls-1" points="138.03 18.73 135.58 18.73 135.58 36.55 138.08 36.55 138.08 23.01 140.42 26.39 142.12 26.39 142.12 24.68 138.03 18.73"/></g><text class="cls-2" transform="translate(59.49 60.41)">RE<tspan class="cls-3" x="9.19" y="0">A</tspan><tspan class="cls-4" x="13.65" y="0">L</tspan><tspan class="cls-5" x="17.58" y="0">I</tspan><tspan class="cls-6" x="19.91" y="0">Z</tspan><tspan class="cls-7" x="24.16" y="0">I</tspan><tspan class="cls-8" x="26.53" y="0">N</tspan><tspan class="cls-9" x="31.63" y="0">G </tspan><tspan class="cls-10" x="38.53" y="0">D</tspan><tspan class="cls-11" x="43.28" y="0">I</tspan><tspan class="cls-12" x="45.66" y="0">G</tspan><tspan class="cls-13" x="50.72" y="0">I</tspan><tspan class="cls-14" x="53.06" y="0">T</tspan><tspan class="cls-15" x="56.99" y="0">A</tspan><tspan class="cls-16" x="61.45" y="0">L</tspan></text><rect id="Schutzraum" class="cls-17" width="184.25" height="55.28"/></g></g></svg>